<svg version="1" xmlns="http://www.w3.org/2000/svg" width="533.333" height="533.333" viewBox="0 0 400.000000 400.000000"><path d="M182.7 48C135.1 54 95 78.5 68.8 117.7c-32.3 48.2-35.2 111.5-7.3 162.8 10.7 19.8 29.2 40.7 46.8 53.2 17.7 12.5 40.2 22.1 62 26.5 16 3.3 45.3 3.2 60.7-.1 22-4.7 42.8-13.5 60.1-25.6 12.2-8.5 32-28.7 40.2-41.1 11.6-17.5 20.3-38.4 24.3-58.9 2.6-13 2.6-44.2 0-58-6-32-20.7-59.8-44-83-23.4-23.3-52.1-38.4-83.6-44-11.1-1.9-35.5-2.8-45.3-1.5zM136 196v9h20v-18h6v42h-6v-19h-20v19h-6v-20.3c0-11.2.3-20.7.7-21 .3-.4 1.7-.7 3-.7 2.2 0 2.3.2 2.3 9zm55.6 4.5c4.2 2.7 6.4 7.4 6.4 13.5 0 9.4-6 16-14.6 16-11.2 0-17.9-13.1-12.3-24.1 3.6-7.2 13.8-9.8 20.5-5.4zm60.3-1.1c3.8 2 6 5.7 6.8 11.1l.6 4.5h-10.6c-5.8 0-10.8.3-11.1.8-.8 1.3 2.2 7 4.4 8.2 1.2.7 4.9 1 8.3.8 5.6-.3 6.2-.1 6.2 1.7 0 2.2-2.8 3.2-9 3.4-5.2.1-10.4-2.5-13.3-6.9-3.2-4.7-2.8-13.9.7-18.9 4-5.6 11.3-7.6 17-4.7zm28.6 1.6c0 2-.6 2.6-2.6 2.8-5.1.6-6.4 3.4-6.7 14.8l-.4 10.4H265v-30h2.5c2 0 2.5.5 2.5 2.6v2.6l3-3.2c3.6-3.9 7.5-3.9 7.5 0zm-70.7 6.2c1.6 4.6 3.5 10.1 4.2 12.3l1.3 4 4.1-12.3c3.9-11.7 4.2-12.2 6.8-12.2 1.5 0 2.8.4 2.8.9s-2.4 7.2-5.4 14.8c-5.2 13.1-5.6 13.8-8.4 14.1-3.3.3-2.5 1.6-9.1-15.8-2.1-5.8-4.2-11.3-4.6-12.3-.6-1.4-.2-1.7 2.3-1.7 2.9 0 3.2.4 6 8.2z"/><path d="M178 205c-1.1 1.1-2.2 3.1-2.6 4.5-1.1 4.4.2 11.5 2.5 13.8 2.6 2.7 8.3 2.8 11.1.2 4.4-4 4.7-13.9.4-18.6-2.3-2.6-8.8-2.5-11.4.1zM240.9 204.9c-4.9 5-4 6.1 4.6 6.1 6.9 0 7.5-.2 7.5-2 0-2.7-4.3-7-7-7-1.2 0-3.5 1.3-5.1 2.9z"/></svg>